<mxfile host="Electron" modified="2024-12-03T11:55:52.547Z" agent="Mozilla/5.0 (Windows NT 10.0; Win64; x64) AppleWebKit/537.36 (KHTML, like Gecko) draw.io/24.5.3 Chrome/124.0.6367.207 Electron/30.0.6 Safari/537.36" etag="f64XdVz4EJGv0z1gnXHa" version="24.5.3" type="device">
  <diagram name="Page-1" id="wpIs-EZ0cmqcFPZI8gt3">
    <mxGraphModel dx="1006" dy="824" grid="1" gridSize="10" guides="1" tooltips="1" connect="1" arrows="1" fold="1" page="1" pageScale="1" pageWidth="1169" pageHeight="827" math="0" shadow="0">
      <root>
        <mxCell id="0" />
        <mxCell id="1" parent="0" />
        <mxCell id="dHlGMR1k2W1KW-VpXWlg-4" value="" style="shape=flexArrow;endArrow=classic;html=1;rounded=0;fillColor=#B9E0A5;" edge="1" parent="1">
          <mxGeometry width="50" height="50" relative="1" as="geometry">
            <mxPoint x="99" y="590" as="sourcePoint" />
            <mxPoint x="219" y="590" as="targetPoint" />
          </mxGeometry>
        </mxCell>
        <mxCell id="dHlGMR1k2W1KW-VpXWlg-5" value="release 24.19" style="edgeLabel;html=1;align=center;verticalAlign=middle;resizable=0;points=[];fontStyle=1" vertex="1" connectable="0" parent="dHlGMR1k2W1KW-VpXWlg-4">
          <mxGeometry x="-0.4182" y="-4" relative="1" as="geometry">
            <mxPoint x="-75" y="-4" as="offset" />
          </mxGeometry>
        </mxCell>
        <mxCell id="dHlGMR1k2W1KW-VpXWlg-6" value="" style="rounded=0;whiteSpace=wrap;html=1;fillColor=#999999;" vertex="1" parent="1">
          <mxGeometry x="100" y="140" width="270" height="10" as="geometry" />
        </mxCell>
        <mxCell id="dHlGMR1k2W1KW-VpXWlg-7" value="" style="shape=flexArrow;endArrow=classic;html=1;rounded=0;fillColor=#7EA6E0;" edge="1" parent="1">
          <mxGeometry width="50" height="50" relative="1" as="geometry">
            <mxPoint x="219" y="491" as="sourcePoint" />
            <mxPoint x="339" y="491" as="targetPoint" />
          </mxGeometry>
        </mxCell>
        <mxCell id="dHlGMR1k2W1KW-VpXWlg-9" value="" style="shape=flexArrow;endArrow=classic;html=1;rounded=0;fillColor=#B9E0A5;" edge="1" parent="1">
          <mxGeometry width="50" height="50" relative="1" as="geometry">
            <mxPoint x="339" y="411" as="sourcePoint" />
            <mxPoint x="459" y="411" as="targetPoint" />
          </mxGeometry>
        </mxCell>
        <mxCell id="dHlGMR1k2W1KW-VpXWlg-10" value="&lt;b&gt;release 25.01&lt;/b&gt;" style="edgeLabel;html=1;align=center;verticalAlign=middle;resizable=0;points=[];" vertex="1" connectable="0" parent="dHlGMR1k2W1KW-VpXWlg-9">
          <mxGeometry x="-0.4182" y="-4" relative="1" as="geometry">
            <mxPoint x="-75" y="-4" as="offset" />
          </mxGeometry>
        </mxCell>
        <mxCell id="dHlGMR1k2W1KW-VpXWlg-11" value="" style="endArrow=classic;html=1;rounded=0;" edge="1" parent="1">
          <mxGeometry width="50" height="50" relative="1" as="geometry">
            <mxPoint x="339" y="481" as="sourcePoint" />
            <mxPoint x="339" y="421" as="targetPoint" />
          </mxGeometry>
        </mxCell>
        <mxCell id="dHlGMR1k2W1KW-VpXWlg-19" value="create" style="edgeLabel;html=1;align=center;verticalAlign=middle;resizable=0;points=[];" vertex="1" connectable="0" parent="dHlGMR1k2W1KW-VpXWlg-11">
          <mxGeometry x="-0.2" y="-2" relative="1" as="geometry">
            <mxPoint as="offset" />
          </mxGeometry>
        </mxCell>
        <mxCell id="dHlGMR1k2W1KW-VpXWlg-13" value="" style="shape=flexArrow;endArrow=classic;html=1;rounded=0;fillColor=#B9E0A5;" edge="1" parent="1">
          <mxGeometry width="50" height="50" relative="1" as="geometry">
            <mxPoint x="339" y="321" as="sourcePoint" />
            <mxPoint x="579" y="321" as="targetPoint" />
          </mxGeometry>
        </mxCell>
        <mxCell id="dHlGMR1k2W1KW-VpXWlg-14" value="&lt;b&gt;release 25.02&lt;/b&gt;" style="edgeLabel;html=1;align=center;verticalAlign=middle;resizable=0;points=[];" vertex="1" connectable="0" parent="dHlGMR1k2W1KW-VpXWlg-13">
          <mxGeometry x="-0.4182" y="-4" relative="1" as="geometry">
            <mxPoint x="-110" y="-4" as="offset" />
          </mxGeometry>
        </mxCell>
        <mxCell id="dHlGMR1k2W1KW-VpXWlg-15" value="" style="endArrow=classic;html=1;rounded=0;" edge="1" parent="1">
          <mxGeometry width="50" height="50" relative="1" as="geometry">
            <mxPoint x="339" y="401" as="sourcePoint" />
            <mxPoint x="339" y="331" as="targetPoint" />
          </mxGeometry>
        </mxCell>
        <mxCell id="dHlGMR1k2W1KW-VpXWlg-20" value="create" style="edgeLabel;html=1;align=center;verticalAlign=middle;resizable=0;points=[];" vertex="1" connectable="0" parent="dHlGMR1k2W1KW-VpXWlg-15">
          <mxGeometry x="-0.1" y="3" relative="1" as="geometry">
            <mxPoint as="offset" />
          </mxGeometry>
        </mxCell>
        <mxCell id="dHlGMR1k2W1KW-VpXWlg-16" value="" style="shape=flexArrow;endArrow=classic;html=1;rounded=0;fillColor=#B9E0A5;" edge="1" parent="1">
          <mxGeometry width="50" height="50" relative="1" as="geometry">
            <mxPoint x="339" y="231" as="sourcePoint" />
            <mxPoint x="699" y="231" as="targetPoint" />
          </mxGeometry>
        </mxCell>
        <mxCell id="dHlGMR1k2W1KW-VpXWlg-17" value="&lt;b&gt;release 25.03&lt;/b&gt;" style="edgeLabel;html=1;align=center;verticalAlign=middle;resizable=0;points=[];" vertex="1" connectable="0" parent="dHlGMR1k2W1KW-VpXWlg-16">
          <mxGeometry x="-0.4182" y="-4" relative="1" as="geometry">
            <mxPoint x="-145" y="-5" as="offset" />
          </mxGeometry>
        </mxCell>
        <mxCell id="dHlGMR1k2W1KW-VpXWlg-18" value="" style="endArrow=classic;html=1;rounded=0;" edge="1" parent="1">
          <mxGeometry width="50" height="50" relative="1" as="geometry">
            <mxPoint x="339" y="311" as="sourcePoint" />
            <mxPoint x="339" y="241" as="targetPoint" />
          </mxGeometry>
        </mxCell>
        <mxCell id="dHlGMR1k2W1KW-VpXWlg-21" value="create" style="edgeLabel;html=1;align=center;verticalAlign=middle;resizable=0;points=[];" vertex="1" connectable="0" parent="dHlGMR1k2W1KW-VpXWlg-18">
          <mxGeometry x="-0.1667" relative="1" as="geometry">
            <mxPoint as="offset" />
          </mxGeometry>
        </mxCell>
        <mxCell id="dHlGMR1k2W1KW-VpXWlg-22" value="" style="endArrow=classic;html=1;rounded=0;" edge="1" parent="1">
          <mxGeometry width="50" height="50" relative="1" as="geometry">
            <mxPoint x="459" y="421" as="sourcePoint" />
            <mxPoint x="459" y="481" as="targetPoint" />
          </mxGeometry>
        </mxCell>
        <mxCell id="dHlGMR1k2W1KW-VpXWlg-23" value="forward-merge" style="edgeLabel;html=1;align=center;verticalAlign=middle;resizable=0;points=[];" vertex="1" connectable="0" parent="dHlGMR1k2W1KW-VpXWlg-22">
          <mxGeometry x="-0.2" y="-2" relative="1" as="geometry">
            <mxPoint y="6" as="offset" />
          </mxGeometry>
        </mxCell>
        <mxCell id="dHlGMR1k2W1KW-VpXWlg-24" value="" style="endArrow=classic;html=1;rounded=0;" edge="1" parent="1">
          <mxGeometry width="50" height="50" relative="1" as="geometry">
            <mxPoint x="459" y="401" as="sourcePoint" />
            <mxPoint x="459" y="331" as="targetPoint" />
          </mxGeometry>
        </mxCell>
        <mxCell id="dHlGMR1k2W1KW-VpXWlg-25" value="&amp;nbsp;merge" style="edgeLabel;html=1;align=center;verticalAlign=middle;resizable=0;points=[];" vertex="1" connectable="0" parent="dHlGMR1k2W1KW-VpXWlg-24">
          <mxGeometry x="-0.2" y="-2" relative="1" as="geometry">
            <mxPoint y="-2" as="offset" />
          </mxGeometry>
        </mxCell>
        <mxCell id="dHlGMR1k2W1KW-VpXWlg-26" value="" style="endArrow=classic;html=1;rounded=0;" edge="1" parent="1">
          <mxGeometry width="50" height="50" relative="1" as="geometry">
            <mxPoint x="459" y="311" as="sourcePoint" />
            <mxPoint x="459" y="241" as="targetPoint" />
          </mxGeometry>
        </mxCell>
        <mxCell id="dHlGMR1k2W1KW-VpXWlg-27" value="&amp;nbsp;merge" style="edgeLabel;html=1;align=center;verticalAlign=middle;resizable=0;points=[];" vertex="1" connectable="0" parent="dHlGMR1k2W1KW-VpXWlg-26">
          <mxGeometry x="-0.2" y="-2" relative="1" as="geometry">
            <mxPoint y="-8" as="offset" />
          </mxGeometry>
        </mxCell>
        <mxCell id="dHlGMR1k2W1KW-VpXWlg-28" value="" style="shape=flexArrow;endArrow=classic;html=1;rounded=0;fillColor=#7EA6E0;" edge="1" parent="1">
          <mxGeometry width="50" height="50" relative="1" as="geometry">
            <mxPoint x="339" y="491" as="sourcePoint" />
            <mxPoint x="459" y="491" as="targetPoint" />
          </mxGeometry>
        </mxCell>
        <mxCell id="dHlGMR1k2W1KW-VpXWlg-30" value="" style="shape=flexArrow;endArrow=classic;html=1;rounded=0;fillColor=#7EA6E0;" edge="1" parent="1">
          <mxGeometry width="50" height="50" relative="1" as="geometry">
            <mxPoint x="459" y="491" as="sourcePoint" />
            <mxPoint x="579" y="491" as="targetPoint" />
          </mxGeometry>
        </mxCell>
        <mxCell id="dHlGMR1k2W1KW-VpXWlg-31" value="" style="endArrow=classic;html=1;rounded=0;" edge="1" parent="1">
          <mxGeometry width="50" height="50" relative="1" as="geometry">
            <mxPoint x="579" y="311" as="sourcePoint" />
            <mxPoint x="579" y="241" as="targetPoint" />
          </mxGeometry>
        </mxCell>
        <mxCell id="dHlGMR1k2W1KW-VpXWlg-32" value="&amp;nbsp;merge" style="edgeLabel;html=1;align=center;verticalAlign=middle;resizable=0;points=[];" vertex="1" connectable="0" parent="dHlGMR1k2W1KW-VpXWlg-31">
          <mxGeometry x="-0.2" y="-2" relative="1" as="geometry">
            <mxPoint y="-8" as="offset" />
          </mxGeometry>
        </mxCell>
        <mxCell id="dHlGMR1k2W1KW-VpXWlg-33" value="" style="endArrow=classic;html=1;rounded=0;" edge="1" parent="1">
          <mxGeometry width="50" height="50" relative="1" as="geometry">
            <mxPoint x="579" y="331" as="sourcePoint" />
            <mxPoint x="579" y="481" as="targetPoint" />
          </mxGeometry>
        </mxCell>
        <mxCell id="dHlGMR1k2W1KW-VpXWlg-34" value="forward-merge" style="edgeLabel;html=1;align=center;verticalAlign=middle;resizable=0;points=[];" vertex="1" connectable="0" parent="dHlGMR1k2W1KW-VpXWlg-33">
          <mxGeometry x="-0.2" y="-2" relative="1" as="geometry">
            <mxPoint y="59" as="offset" />
          </mxGeometry>
        </mxCell>
        <mxCell id="dHlGMR1k2W1KW-VpXWlg-35" value="" style="shape=flexArrow;endArrow=classic;html=1;rounded=0;fillColor=#7EA6E0;" edge="1" parent="1">
          <mxGeometry width="50" height="50" relative="1" as="geometry">
            <mxPoint x="579" y="491" as="sourcePoint" />
            <mxPoint x="699" y="491" as="targetPoint" />
          </mxGeometry>
        </mxCell>
        <mxCell id="dHlGMR1k2W1KW-VpXWlg-36" value="main" style="edgeLabel;html=1;align=center;verticalAlign=middle;resizable=0;points=[];fontStyle=1" vertex="1" connectable="0" parent="dHlGMR1k2W1KW-VpXWlg-35">
          <mxGeometry x="-0.0333" y="-2" relative="1" as="geometry">
            <mxPoint x="-438" y="-1" as="offset" />
          </mxGeometry>
        </mxCell>
        <mxCell id="dHlGMR1k2W1KW-VpXWlg-37" value="" style="endArrow=classic;html=1;rounded=0;" edge="1" parent="1">
          <mxGeometry width="50" height="50" relative="1" as="geometry">
            <mxPoint x="699" y="241" as="sourcePoint" />
            <mxPoint x="699" y="481" as="targetPoint" />
          </mxGeometry>
        </mxCell>
        <mxCell id="dHlGMR1k2W1KW-VpXWlg-38" value="forward-merge" style="edgeLabel;html=1;align=center;verticalAlign=middle;resizable=0;points=[];" vertex="1" connectable="0" parent="dHlGMR1k2W1KW-VpXWlg-37">
          <mxGeometry x="-0.2" y="-2" relative="1" as="geometry">
            <mxPoint y="113" as="offset" />
          </mxGeometry>
        </mxCell>
        <mxCell id="dHlGMR1k2W1KW-VpXWlg-39" value="" style="endArrow=classic;html=1;rounded=0;" edge="1" parent="1">
          <mxGeometry width="50" height="50" relative="1" as="geometry">
            <mxPoint x="519" y="481" as="sourcePoint" />
            <mxPoint x="519" y="331" as="targetPoint" />
          </mxGeometry>
        </mxCell>
        <mxCell id="dHlGMR1k2W1KW-VpXWlg-40" value="cherry-pick" style="edgeLabel;html=1;align=center;verticalAlign=middle;resizable=0;points=[];" vertex="1" connectable="0" parent="dHlGMR1k2W1KW-VpXWlg-39">
          <mxGeometry x="-0.2811" relative="1" as="geometry">
            <mxPoint y="-56" as="offset" />
          </mxGeometry>
        </mxCell>
        <mxCell id="dHlGMR1k2W1KW-VpXWlg-41" value="" style="ellipse;whiteSpace=wrap;html=1;aspect=fixed;fillColor=#FF9999;" vertex="1" parent="1">
          <mxGeometry x="509" y="482" width="20" height="20" as="geometry" />
        </mxCell>
        <mxCell id="dHlGMR1k2W1KW-VpXWlg-43" value="hot fix" style="edgeLabel;html=1;align=center;verticalAlign=middle;resizable=0;points=[];fontStyle=1" vertex="1" connectable="0" parent="1">
          <mxGeometry x="519.0010344827585" y="511" as="geometry" />
        </mxCell>
        <mxCell id="dHlGMR1k2W1KW-VpXWlg-46" value="" style="ellipse;whiteSpace=wrap;html=1;aspect=fixed;fillColor=#FF9999;" vertex="1" parent="1">
          <mxGeometry x="509" y="311" width="20" height="20" as="geometry" />
        </mxCell>
        <mxCell id="dHlGMR1k2W1KW-VpXWlg-48" value="" style="endArrow=classic;html=1;rounded=0;" edge="1" parent="1">
          <mxGeometry width="50" height="50" relative="1" as="geometry">
            <mxPoint x="219" y="580" as="sourcePoint" />
            <mxPoint x="219" y="500" as="targetPoint" />
          </mxGeometry>
        </mxCell>
        <mxCell id="dHlGMR1k2W1KW-VpXWlg-49" value="create" style="edgeLabel;html=1;align=center;verticalAlign=middle;resizable=0;points=[];" vertex="1" connectable="0" parent="dHlGMR1k2W1KW-VpXWlg-48">
          <mxGeometry x="-0.2" y="-2" relative="1" as="geometry">
            <mxPoint y="-8" as="offset" />
          </mxGeometry>
        </mxCell>
        <mxCell id="dHlGMR1k2W1KW-VpXWlg-52" value="develop&amp;nbsp;&lt;div&gt;(deprecated)&lt;/div&gt;" style="edgeLabel;html=1;align=center;verticalAlign=middle;resizable=0;points=[];fontStyle=1" vertex="1" connectable="0" parent="1">
          <mxGeometry x="60.002413793103486" y="150" as="geometry" />
        </mxCell>
        <mxCell id="dHlGMR1k2W1KW-VpXWlg-53" value="&lt;b&gt;dev-03/tst-03/ptest-03/prd&lt;/b&gt;" style="edgeLabel;html=1;align=center;verticalAlign=middle;resizable=0;points=[];" vertex="1" connectable="0" parent="1">
          <mxGeometry x="769.9975862068966" y="230" as="geometry" />
        </mxCell>
        <mxCell id="dHlGMR1k2W1KW-VpXWlg-56" value="" style="endArrow=classic;html=1;rounded=0;" edge="1" parent="1">
          <mxGeometry width="50" height="50" relative="1" as="geometry">
            <mxPoint x="360" y="160" as="sourcePoint" />
            <mxPoint x="360" y="220" as="targetPoint" />
          </mxGeometry>
        </mxCell>
        <mxCell id="dHlGMR1k2W1KW-VpXWlg-57" value="migrate code" style="edgeLabel;html=1;align=center;verticalAlign=middle;resizable=0;points=[];" vertex="1" connectable="0" parent="dHlGMR1k2W1KW-VpXWlg-56">
          <mxGeometry x="-0.1667" relative="1" as="geometry">
            <mxPoint as="offset" />
          </mxGeometry>
        </mxCell>
        <mxCell id="dHlGMR1k2W1KW-VpXWlg-58" value="" style="endArrow=classic;html=1;rounded=0;" edge="1" parent="1">
          <mxGeometry width="50" height="50" relative="1" as="geometry">
            <mxPoint x="100" y="160" as="sourcePoint" />
            <mxPoint x="100" y="580" as="targetPoint" />
          </mxGeometry>
        </mxCell>
        <mxCell id="dHlGMR1k2W1KW-VpXWlg-59" value="migrate code" style="edgeLabel;html=1;align=center;verticalAlign=middle;resizable=0;points=[];" vertex="1" connectable="0" parent="dHlGMR1k2W1KW-VpXWlg-58">
          <mxGeometry x="-0.1667" relative="1" as="geometry">
            <mxPoint as="offset" />
          </mxGeometry>
        </mxCell>
        <mxCell id="dHlGMR1k2W1KW-VpXWlg-60" value="" style="shape=flexArrow;endArrow=classic;html=1;rounded=0;fillColor=#B9E0A5;" edge="1" parent="1">
          <mxGeometry width="50" height="50" relative="1" as="geometry">
            <mxPoint x="459" y="144.66" as="sourcePoint" />
            <mxPoint x="819" y="144.66" as="targetPoint" />
          </mxGeometry>
        </mxCell>
        <mxCell id="dHlGMR1k2W1KW-VpXWlg-61" value="&lt;b&gt;release 25.04&lt;/b&gt;" style="edgeLabel;html=1;align=center;verticalAlign=middle;resizable=0;points=[];" vertex="1" connectable="0" parent="dHlGMR1k2W1KW-VpXWlg-60">
          <mxGeometry x="-0.4182" y="-4" relative="1" as="geometry">
            <mxPoint x="-145" y="-5" as="offset" />
          </mxGeometry>
        </mxCell>
        <mxCell id="dHlGMR1k2W1KW-VpXWlg-62" value="" style="endArrow=classic;html=1;rounded=0;" edge="1" parent="1">
          <mxGeometry width="50" height="50" relative="1" as="geometry">
            <mxPoint x="460" y="220" as="sourcePoint" />
            <mxPoint x="460" y="160" as="targetPoint" />
          </mxGeometry>
        </mxCell>
        <mxCell id="dHlGMR1k2W1KW-VpXWlg-63" value="create" style="edgeLabel;html=1;align=center;verticalAlign=middle;resizable=0;points=[];" vertex="1" connectable="0" parent="dHlGMR1k2W1KW-VpXWlg-62">
          <mxGeometry x="-0.1667" relative="1" as="geometry">
            <mxPoint y="6" as="offset" />
          </mxGeometry>
        </mxCell>
        <mxCell id="dHlGMR1k2W1KW-VpXWlg-64" value="" style="endArrow=classic;html=1;rounded=0;" edge="1" parent="1">
          <mxGeometry width="50" height="50" relative="1" as="geometry">
            <mxPoint x="700" y="220" as="sourcePoint" />
            <mxPoint x="700" y="160" as="targetPoint" />
          </mxGeometry>
        </mxCell>
        <mxCell id="dHlGMR1k2W1KW-VpXWlg-65" value="&amp;nbsp;merge" style="edgeLabel;html=1;align=center;verticalAlign=middle;resizable=0;points=[];" vertex="1" connectable="0" parent="dHlGMR1k2W1KW-VpXWlg-64">
          <mxGeometry x="-0.2" y="-2" relative="1" as="geometry">
            <mxPoint y="-8" as="offset" />
          </mxGeometry>
        </mxCell>
        <mxCell id="dHlGMR1k2W1KW-VpXWlg-67" value="&lt;b style=&quot;forced-color-adjust: none; color: rgb(0, 0, 0); font-family: Helvetica; font-size: 11px; font-style: normal; font-variant-ligatures: normal; font-variant-caps: normal; letter-spacing: normal; orphans: 2; text-align: center; text-indent: 0px; text-transform: none; widows: 2; word-spacing: 0px; -webkit-text-stroke-width: 0px; white-space: nowrap; text-decoration-thickness: initial; text-decoration-style: initial; text-decoration-color: initial;&quot;&gt;dev-02/tst-02/ptest-02/prd&lt;/b&gt;" style="text;whiteSpace=wrap;html=1;" vertex="1" parent="1">
          <mxGeometry x="581" y="307" width="120" height="19" as="geometry" />
        </mxCell>
        <mxCell id="dHlGMR1k2W1KW-VpXWlg-69" value="" style="edgeStyle=elbowEdgeStyle;elbow=vertical;endArrow=classic;html=1;curved=0;rounded=0;endSize=8;startSize=8;" edge="1" parent="1">
          <mxGeometry width="50" height="50" relative="1" as="geometry">
            <mxPoint x="550" y="138" as="sourcePoint" />
            <mxPoint x="610" y="138" as="targetPoint" />
            <Array as="points">
              <mxPoint x="570" y="118" />
            </Array>
          </mxGeometry>
        </mxCell>
        <mxCell id="dHlGMR1k2W1KW-VpXWlg-70" value="feature/bugfix" style="edgeLabel;html=1;align=center;verticalAlign=middle;resizable=0;points=[];" vertex="1" connectable="0" parent="dHlGMR1k2W1KW-VpXWlg-69">
          <mxGeometry x="0.2908" y="-2" relative="1" as="geometry">
            <mxPoint x="-17" y="-12" as="offset" />
          </mxGeometry>
        </mxCell>
        <mxCell id="dHlGMR1k2W1KW-VpXWlg-71" value="" style="edgeStyle=elbowEdgeStyle;elbow=vertical;endArrow=classic;html=1;curved=0;rounded=0;endSize=8;startSize=8;" edge="1" parent="1">
          <mxGeometry width="50" height="50" relative="1" as="geometry">
            <mxPoint x="550" y="224" as="sourcePoint" />
            <mxPoint x="610" y="224" as="targetPoint" />
            <Array as="points">
              <mxPoint x="570" y="204" />
            </Array>
          </mxGeometry>
        </mxCell>
        <mxCell id="dHlGMR1k2W1KW-VpXWlg-72" value="feature/bugfix" style="edgeLabel;html=1;align=center;verticalAlign=middle;resizable=0;points=[];" vertex="1" connectable="0" parent="dHlGMR1k2W1KW-VpXWlg-71">
          <mxGeometry x="0.2908" y="-2" relative="1" as="geometry">
            <mxPoint x="-17" y="-12" as="offset" />
          </mxGeometry>
        </mxCell>
        <mxCell id="dHlGMR1k2W1KW-VpXWlg-73" value="" style="edgeStyle=elbowEdgeStyle;elbow=vertical;endArrow=classic;html=1;curved=0;rounded=0;endSize=8;startSize=8;" edge="1" parent="1">
          <mxGeometry width="50" height="50" relative="1" as="geometry">
            <mxPoint x="370" y="314" as="sourcePoint" />
            <mxPoint x="430" y="314" as="targetPoint" />
            <Array as="points">
              <mxPoint x="390" y="294" />
            </Array>
          </mxGeometry>
        </mxCell>
        <mxCell id="dHlGMR1k2W1KW-VpXWlg-74" value="feature/bugfix" style="edgeLabel;html=1;align=center;verticalAlign=middle;resizable=0;points=[];" vertex="1" connectable="0" parent="dHlGMR1k2W1KW-VpXWlg-73">
          <mxGeometry x="0.2908" y="-2" relative="1" as="geometry">
            <mxPoint x="-17" y="-12" as="offset" />
          </mxGeometry>
        </mxCell>
        <mxCell id="dHlGMR1k2W1KW-VpXWlg-75" value="" style="edgeStyle=elbowEdgeStyle;elbow=vertical;endArrow=classic;html=1;curved=0;rounded=0;endSize=8;startSize=8;" edge="1" parent="1">
          <mxGeometry width="50" height="50" relative="1" as="geometry">
            <mxPoint x="370" y="404" as="sourcePoint" />
            <mxPoint x="430" y="404" as="targetPoint" />
            <Array as="points">
              <mxPoint x="390" y="384" />
            </Array>
          </mxGeometry>
        </mxCell>
        <mxCell id="dHlGMR1k2W1KW-VpXWlg-76" value="feature/bugfix" style="edgeLabel;html=1;align=center;verticalAlign=middle;resizable=0;points=[];" vertex="1" connectable="0" parent="dHlGMR1k2W1KW-VpXWlg-75">
          <mxGeometry x="0.2908" y="-2" relative="1" as="geometry">
            <mxPoint x="-17" y="-12" as="offset" />
          </mxGeometry>
        </mxCell>
        <mxCell id="dHlGMR1k2W1KW-VpXWlg-77" value="&lt;b style=&quot;forced-color-adjust: none; color: rgb(0, 0, 0); font-family: Helvetica; font-size: 11px; font-style: normal; font-variant-ligatures: normal; font-variant-caps: normal; letter-spacing: normal; orphans: 2; text-align: center; text-indent: 0px; text-transform: none; widows: 2; word-spacing: 0px; -webkit-text-stroke-width: 0px; white-space: nowrap; text-decoration-thickness: initial; text-decoration-style: initial; text-decoration-color: initial;&quot;&gt;dev-01/tst-01/ptest-01/prd&lt;/b&gt;" style="text;whiteSpace=wrap;html=1;" vertex="1" parent="1">
          <mxGeometry x="459" y="397" width="120" height="19" as="geometry" />
        </mxCell>
        <mxCell id="dHlGMR1k2W1KW-VpXWlg-78" value="&lt;b style=&quot;forced-color-adjust: none; color: rgb(0, 0, 0); font-family: Helvetica; font-size: 11px; font-style: normal; font-variant-ligatures: normal; font-variant-caps: normal; letter-spacing: normal; orphans: 2; text-align: center; text-indent: 0px; text-transform: none; widows: 2; word-spacing: 0px; -webkit-text-stroke-width: 0px; white-space: nowrap; text-decoration-thickness: initial; text-decoration-style: initial; text-decoration-color: initial;&quot;&gt;dev-01/tst-01/ptest-01/prd&lt;/b&gt;" style="text;whiteSpace=wrap;html=1;" vertex="1" parent="1">
          <mxGeometry x="821" y="131" width="139" height="19" as="geometry" />
        </mxCell>
      </root>
    </mxGraphModel>
  </diagram>
</mxfile>
